<?xml version="1.0" encoding="iso-8859-1"?>
<!-- Uploaded to: SVG Repo, www.svgrepo.com, Generator: SVG Repo Mixer Tools -->
<svg height="800px" width="800px" version="1.1" id="Layer_1" xmlns="http://www.w3.org/2000/svg" xmlns:xlink="http://www.w3.org/1999/xlink" 
	 viewBox="0 0 512 512" xml:space="preserve">
<path style="fill:#2D2E30;" d="M410.898,512c-5.656,0-11.15-2.952-14.149-8.218L256,256.638L115.25,503.781
	c-4.446,7.804-14.376,10.53-22.183,6.085c-7.806-4.445-10.53-14.377-6.084-22.183L256,190.904l169.017,296.779
	c4.445,7.806,1.722,17.738-6.084,22.183C416.393,511.313,413.627,512,410.898,512z"/>
<path style="fill:#1D1D1F;" d="M256,511.997c-8.983,0-16.265-7.283-16.265-16.265V267.242c0-8.982,7.283-16.265,16.265-16.265
	s16.265,7.283,16.265,16.265v228.489C272.266,504.715,264.983,511.997,256,511.997z"/>
<path style="fill:#2D2E30;" d="M256,511.997c-8.983,0-16.265-7.283-16.265-16.265V267.242c0-8.982,7.283-16.265,16.265-16.265
	V511.997z"/>
<path style="fill:#F7DC4D;" d="M276.251,60.132c-5.557-9.558-14.817-13.683-19.062-17.921c-2.744-2.865-2.265-9.348-1.912-13.514
	c0.589-6.711,2.251-16.776,3.19-24.611c0.179-1.493-0.576-2.943-1.901-3.654s-2.952-0.535-4.095,0.442
	c-6.524,5.578-13.048,13.346-17.255,21.508c-1.974,3.924-3.846,8.404-4.704,14.149c-3.681,25.488,20.102,33.774,23.189,38.651
	c2.068,1.837,1.601,10.131,1.366,12.905c-0.561,6.405-2.236,16.695-3.171,24.672c-0.175,1.491,0.581,2.936,1.905,3.645
	c1.324,0.708,2.946,0.533,4.089-0.441c6.464-5.511,13.075-13.31,17.316-21.539C280.965,82.978,282.507,71.257,276.251,60.132z"/>
<g>
	<path style="fill:#CE9A32;" d="M217.395,107.008c-3.325-13.84-17.051-18.229-19.05-22.267c-0.292-0.545-0.528-1.386-0.69-2.416
		c-0.333-2.07-0.243-4.804-0.014-7.505c0.434-4.949,1.598-12.247,2.386-18.358c0.196-1.519-0.578-2.999-1.938-3.706
		c-1.36-0.706-3.017-0.49-4.147,0.545c-4.75,4.345-9.511,10.128-12.72,16.353c-4.715,9.373-5.972,18.949-0.871,28.048
		c4.55,7.871,12.295,11.325,15.568,14.688c0.151,0.161,0.315,0.293,0.432,0.478c1.695,1.501,1.308,8.313,1.118,10.563
		c-0.413,4.711-1.588,12.163-2.375,18.402c-0.192,1.517,0.584,2.992,1.941,3.697c1.357,0.704,3.011,0.489,4.14-0.541
		c4.57-4.167,9.437-9.891,12.776-16.37C217.318,121.921,219.283,114.029,217.395,107.008z"/>
	<path style="fill:#CE9A32;" d="M326.282,85.881c-2.246-2.345-1.853-7.652-1.566-11.061c0.432-4.929,1.597-12.238,2.385-18.356
		c0.196-1.519-0.578-2.999-1.938-3.706c-1.36-0.707-3.016-0.49-4.147,0.543c-4.688,4.287-9.464,10.035-12.719,16.35
		c-6.37,12.662-5.797,25.174,4.546,34.691c3.863,3.571,9.58,6.939,10.583,8.524c1.695,1.501,1.308,8.318,1.118,10.563
		c-0.412,4.698-1.588,12.158-2.374,18.4c-0.192,1.517,0.583,2.992,1.941,3.697c1.357,0.704,3.011,0.489,4.14-0.541
		c4.561-4.16,9.432-9.88,12.776-16.368c1.616-3.214,3.148-6.883,3.846-11.589C347.692,97.548,330.46,90.048,326.282,85.881z"/>
</g>
<path style="fill:#797882;" d="M256,341.617c80.747,0,146.204-65.457,146.204-146.204H109.796
	C109.796,276.159,175.253,341.617,256,341.617z"/>
<g>
	<path style="fill:#4B4A4F;" d="M256,313.208c-51.388,0-97.93-20.736-131.727-54.291c23.636,48.938,73.739,82.699,131.727,82.699
		c57.989,0,108.091-33.761,131.727-82.699C353.93,292.473,307.388,313.208,256,313.208z"/>
	<path style="fill:#4B4A4F;" d="M256,195.413v146.204c80.747,0,146.204-65.457,146.204-146.204L256,195.413L256,195.413z"/>
</g>
<path style="fill:#E1E1E3;" d="M419.904,218.243c0,6.942-5.627,12.569-12.569,12.569H104.666c-6.942,0-12.569-5.627-12.569-12.569
	v-45.659c0-6.942,5.627-12.569,12.569-12.569h302.669c6.942,0,12.569,5.627,12.569,12.569V218.243z"/>
<path style="fill:#ACACB2;" d="M407.334,160.014H255.208v70.798h152.127c6.942,0,12.569-5.628,12.569-12.569v-45.66
	C419.904,165.642,414.276,160.014,407.334,160.014z"/>
</svg>